<!DOCTYPE svg PUBLIC "-//W3C//DTD SVG 1.1//EN" "http://www.w3.org/Graphics/SVG/1.1/DTD/svg11.dtd">

<!-- Uploaded to: SVG Repo, www.svgrepo.com, Transformed by: SVG Repo Mixer Tools -->
<svg version="1.0" id="Layer_1" xmlns="http://www.w3.org/2000/svg" xmlns:xlink="http://www.w3.org/1999/xlink" width="800px" height="800px" viewBox="0 0 64.00 64.00" enable-background="new 0 0 64 64" xml:space="preserve" fill="#ec4899" stroke="#ec4899">

<g id="SVGRepo_bgCarrier" stroke-width="0"/>

<g id="SVGRepo_tracerCarrier" stroke-linecap="round" stroke-linejoin="round"/>

<g id="SVGRepo_iconCarrier"> <g> <path fill="#ec4899" d="M43.416,35.812c-0.448-0.322-0.55-0.947-0.228-1.396c0.321-0.448,0.947-0.55,1.396-0.228L64,48.168V15.475 L32.597,38.803C32.419,38.935,32.21,39,32,39s-0.419-0.065-0.597-0.197L0,15.475v32.693l19.416-13.979 c0.449-0.321,1.073-0.22,1.396,0.228c0.322,0.448,0.221,1.073-0.228,1.396L0,50.632V52c0,2.211,1.789,4,4,4h56c2.211,0,4-1.789,4-4 v-1.368L43.416,35.812z"/> <path fill="#ec4899" d="M32,36.754l32-23.771V12c0-2.211-1.789-4-4-4H4c-2.211,0-4,1.789-4,4v0.982L32,36.754z"/> </g> </g>

</svg>